<?xml version="1.0" encoding="UTF-8" standalone="no"?>
<svg
   width="220"
   height="100"
   version="1.1"
   id="svg16"
   sodipodi:docname="gnome_circle_logo.svg"
   inkscape:version="1.1.1 (3bf5ae0d25, 2021-09-20)"
   xmlns:inkscape="http://www.inkscape.org/namespaces/inkscape"
   xmlns:sodipodi="http://sodipodi.sourceforge.net/DTD/sodipodi-0.dtd"
   xmlns="http://www.w3.org/2000/svg"
   xmlns:svg="http://www.w3.org/2000/svg">
  <defs
     id="defs20" />
  <sodipodi:namedview
     id="namedview18"
     pagecolor="#ffffff"
     bordercolor="#666666"
     borderopacity="1.0"
     inkscape:pageshadow="2"
     inkscape:pageopacity="0.0"
     inkscape:pagecheckerboard="0"
     showgrid="false"
     inkscape:zoom="2.4121984"
     inkscape:cx="73.37705"
     inkscape:cy="55.550987"
     inkscape:window-width="1920"
     inkscape:window-height="986"
     inkscape:window-x="-11"
     inkscape:window-y="-11"
     inkscape:window-maximized="1"
     inkscape:current-layer="svg16" />
  <g
     fill="#ffffff"
     id="g14"
     style="fill:#000000">
    <g
       style="line-height:1.25;-inkscape-font-specification:'Red Hat Display, Heavy';font-variant-ligatures:normal;font-variant-caps:normal;font-variant-numeric:normal;font-variant-east-asian:normal;fill:#000000"
       aria-label="circle"
       font-weight="900"
       font-size="224.56px"
       font-family="'Red Hat Display'"
       letter-spacing="4.303"
       word-spacing="0"
       stroke-width="5.614"
       id="g4">
      <path
         style="-inkscape-font-specification:'Red Hat Display, Heavy';font-variant-ligatures:normal;font-variant-caps:normal;font-variant-numeric:normal;font-variant-east-asian:normal;fill:#000000"
         d="m 119.279,69.968 c -2.495,0 -4.341,-1.948 -4.341,-4.58 0,-2.632 1.812,-4.615 4.204,-4.615 1.607,0 2.872,0.65 4.136,2.086 l 3.384,-3.521 c -1.88,-2.12 -4.683,-3.35 -7.656,-3.35 -5.401,0 -9.571,4.102 -9.571,9.4 0,5.298 4.17,9.366 9.57,9.366 2.872,0 5.64,-1.23 7.486,-3.316 L 123.21,68.02 c -1.196,1.333 -2.427,1.948 -3.931,1.948 z m 12.824,-15.313 a 3.049,3.049 0 0 0 3.042,-3.042 3.049,3.049 0 0 0 -3.042,-3.042 3.049,3.049 0 0 0 -3.043,3.042 3.049,3.049 0 0 0 3.043,3.042 z m 2.768,1.675 h -5.537 v 18.082 h 5.537 z m 4.074,18.082 h 5.537 V 62.927 a 4.932,4.932 0 0 1 4.204,-2.29 c 0.957,0 1.914,0.205 2.632,0.547 v -4.82 c -0.478,-0.308 -1.025,-0.41 -2.085,-0.444 -1.948,0 -3.555,0.786 -4.751,2.221 V 56.33 h -5.537 z m 23.761,-4.444 c -2.495,0 -4.34,-1.948 -4.34,-4.58 0,-2.632 1.81,-4.615 4.203,-4.615 1.607,0 2.872,0.65 4.136,2.086 l 3.384,-3.521 c -1.88,-2.12 -4.682,-3.35 -7.656,-3.35 -5.4,0 -9.571,4.102 -9.571,9.4 0,5.298 4.17,9.366 9.57,9.366 2.872,0 5.64,-1.23 7.487,-3.316 l -3.282,-3.418 c -1.196,1.333 -2.427,1.948 -3.93,1.948 z m 15.593,-20.68 -5.538,1.197 v 23.927 h 5.538 z m 20.651,22.732 -3.658,-3.248 c -0.854,0.889 -2.119,1.367 -3.623,1.367 -2.085,0 -3.726,-1.162 -4.443,-2.871 h 12.886 V 65.9 c 0,-5.709 -3.828,-9.879 -9.127,-9.879 -5.298,0 -9.434,4.102 -9.434,9.366 0,5.264 4.307,9.366 9.845,9.366 3.008,0 5.264,-0.82 7.554,-2.735 z m -8.067,-11.486 c 1.777,0 3.213,1.128 3.794,2.871 h -7.554 c 0.547,-1.811 1.914,-2.87 3.76,-2.87 z"
         id="path2" />
    </g>
    <path
       d="m 59.882,12.898 a 37.55,37.55 0 0 0 -37.47,37.55 37.55,37.55 0 0 0 37.55,37.55 37.55,37.55 0 0 0 37.55,-37.55 37.55,37.55 0 0 0 -37.55,-37.55 37.55,37.55 0 0 0 -0.08,0 z m 0.072,7.596 a 29.954,29.954 0 0 1 0.008,0 A 29.954,29.954 0 0 1 89.916,50.448 29.954,29.954 0 0 1 59.962,80.402 29.954,29.954 0 0 1 30.008,50.448 29.954,29.954 0 0 1 59.954,20.494 Z"
       id="path6"
       style="fill:#000000" />
    <path
       d="M 59.902,27.496 A 22.952,22.952 0 0 0 37.01,50.448 22.952,22.952 0 0 0 59.962,73.4 22.952,22.952 0 0 0 82.914,50.448 22.952,22.952 0 0 0 59.962,27.496 a 22.952,22.952 0 0 0 -0.06,0 z m 0.06,8.221 A 14.73,14.73 0 0 1 74.692,50.448 14.73,14.73 0 0 1 59.962,65.179 14.73,14.73 0 0 1 45.231,50.449 14.73,14.73 0 0 1 59.962,35.717 Z"
       id="path8"
       style="fill:#000000" />
    <g
       style="line-height:1.25;-inkscape-font-specification:'Red Hat Display, Normal';font-variant-ligatures:normal;font-variant-caps:normal;font-variant-numeric:normal;font-variant-east-asian:normal;fill:#000000"
       aria-label="GNOME"
       font-weight="400"
       font-size="151.355px"
       font-family="'Red Hat Display'"
       letter-spacing="2.901"
       word-spacing="0"
       stroke-width="3.784"
       id="g12">
      <path
         style="-inkscape-font-specification:'Red Hat Display, Normal';font-variant-ligatures:normal;font-variant-caps:normal;font-variant-numeric:normal;font-variant-east-asian:normal;fill:#000000"
         d="m 126.223,35.329 v -0.714 h -7.58 v 1.566 h 5.783 c -0.276,3.156 -2.788,5.483 -6.06,5.483 -3.685,0 -6.519,-2.902 -6.519,-6.68 0,-3.78 2.834,-6.682 6.52,-6.682 1.981,0 3.916,0.83 5.16,2.235 l 1.199,-1.221 c -1.567,-1.682 -3.87,-2.65 -6.36,-2.65 -4.653,0 -8.316,3.686 -8.316,8.317 0,4.63 3.686,8.317 8.34,8.317 4.423,0 7.833,-3.479 7.833,-7.971 z m 3.183,-8.409 v 16.127 h 1.682 V 29.615 l 9.907,13.432 h 1.566 V 26.92 h -1.682 V 40.006 L 131.18,26.92 Z m 32.995,8.063 c 0,-4.654 -3.663,-8.317 -8.294,-8.317 -4.654,0 -8.317,3.663 -8.317,8.317 0,4.654 3.663,8.317 8.317,8.317 4.631,0 8.294,-3.663 8.294,-8.317 z m -1.797,0 c 0,3.755 -2.834,6.681 -6.497,6.681 -3.686,0 -6.52,-2.926 -6.52,-6.68 0,-3.78 2.834,-6.682 6.52,-6.682 3.663,0 6.497,2.903 6.497,6.681 z m 12.998,6.912 6.312,-12.948 v 14.1 h 1.682 V 26.92 h -2.488 l -5.483,11.45 -5.507,-11.45 h -2.488 v 16.127 h 1.659 V 28.97 Z m 11.983,1.152 H 197.22 V 41.48 h -9.86 v -5.806 h 6.381 v -1.543 h -6.382 v -5.645 h 9.769 V 26.92 h -11.543 z"
         id="path10" />
    </g>
  </g>
</svg>
